<?xml version="1.0" encoding="UTF-8"?>
<svg width="358px" height="324px" viewBox="0 0 358 324" version="1.1" xmlns="http://www.w3.org/2000/svg" xmlns:xlink="http://www.w3.org/1999/xlink">
    <title>C8AC9610-3D07-4503-B027-1867F02102A3</title>
    <g id="404_Coming-Soon" stroke="none" stroke-width="1" fill="none" fill-rule="evenodd">
        <g id="404_v1" transform="translate(-781.000000, -302.000000)">
            <g id="txt" transform="translate(344.000000, 174.000000)">
                <g id="ill/404_girl" transform="translate(437.000000, 128.000000)">
                    <g transform="translate(0.000317, 0.847828)">
                        <path d="M52.3683966,294.015327 C122.191938,331.970824 235.40034,331.970824 305.223035,294.016175 C375.047423,256.059829 375.047423,194.52273 305.223035,156.568081 C235.399493,118.611735 122.191092,118.611735 52.3675502,156.566384 C-17.4559911,194.521882 -17.4559911,256.059829 52.3683966,294.015327" id="Background" fill="#E8EEF4"></path>
                        <g id="Girl" transform="translate(47.035678, 0.000000)">
                            <path d="M82.3918381,202.121208 C63.5430957,211.125355 32.9852991,211.125355 14.1365567,202.121208 C-4.71218558,193.120454 -4.71218558,178.522643 14.1365567,169.519345 C32.9852991,160.517742 63.5430957,160.517742 82.3918381,169.519345 C101.24058,178.522643 101.24058,193.120454 82.3918381,202.121208" id="Fill-4" fill="#C6D8E1"></path>
                            <path d="M73.3615208,54.3777173 C73.3395161,56.7093298 71.4843482,58.6066806 69.1586177,58.6770785 L45.392665,59.3988691 C37.3617856,59.3988691 41.5291426,28.3466073 41.5291426,20.2983455 L41.5291426,16.1838848 C41.5291426,7.24589529 48.7585421,4.26325641e-14 57.6772277,4.26325641e-14 C66.5959132,4.26325641e-14 73.8261591,7.24589529 73.8261591,16.1838848 L73.3615208,54.3777173 Z" id="Fill-60" fill="#333333"></path>
                            <polygon id="Fill-63" fill="#EB996E" points="79.721395 55.5245246 84.60983 64.507467 77.8146007 70.344556 71.0185251 59.7882628"></polygon>
                            <path d="M66.0441024,36.2564482 C68.6034215,36.4693382 71.2541449,37.5643225 73.0906934,41.3751393 C74.9272418,45.1851079 80.6713222,57.0518199 80.6713222,57.0518199 C80.6713222,57.0518199 79.3772749,62.2069822 72.6819132,62.8897571 L70.0218801,58.8058304 L66.0441024,36.2564482 Z" id="Fill-65" fill="#1FB571"></path>
                            <path d="M66.0441024,36.2564482 C68.6034215,36.4693382 71.2541449,37.5643225 73.0906934,41.3751393 C74.9272418,45.1851079 80.6713222,57.0518199 80.6713222,57.0518199 C80.6713222,57.0518199 79.3772749,62.2069822 72.6819132,62.8897571 L70.0218801,58.8058304 L66.0441024,36.2564482 Z" id="Fill-67" fill="#22905C" opacity="0.500209263"></path>
                            <path d="M20.8551927,159.564572 C19.5806111,158.907242 18.7715142,160.528938 17.6154196,161.830027 C16.8054764,162.742655 15.5418972,164.187085 15.3540106,165.22609 C15.0781052,166.764666 15.8196702,167.7252 17.3523842,169.060216 C18.8850981,170.39608 20.3218111,170.189491 21.3218111,172.689491 C22.3218111,175.189491 22.793622,176.880769 25.8218111,178.189491 C29.139447,179.623742 32.8144872,179.164884 34.3218111,178.189491 C36.1075794,177.033439 36.3218111,175.689491 32.964005,172.652172 C28.7484745,168.838994 26.964005,167.652172 27.6961241,163.307535 L20.8551927,159.564572 Z" id="Fill-69" fill="#333333"></path>
                            <path d="M23.4661383,155.729243 L20.7849468,159.668133 C19.6229279,161.375494 19.9851596,163.753756 21.690526,164.914897 C21.7176087,164.933557 21.7455378,164.952217 21.7734669,164.970876 C23.4052021,166.031086 25.5929799,165.60785 26.9073392,164.171054 L31.0924693,159.594342 L23.4661383,155.729243 Z" id="Fill-71" fill="#FFBE9D"></path>
                            <path d="M71.6787515,80.9587791 C71.8480187,85.9773864 72.7315931,104.284235 69.0771156,113.89058 C65.654534,122.883701 62.5594844,127.694507 61.4702504,129.562172 C60.38017,131.429837 29.0031203,162.043596 29.0031203,162.043596 C29.0031203,162.043596 23.6788225,161.653439 22.8316404,156.47792 C22.8316404,156.47792 35.6891723,134.574842 38.4719241,130.082098 C41.2555222,125.590203 51.1170258,118.702235 51.1170258,118.702235 L50.2207563,76.5915644 L71.6787515,80.9587791 Z" id="Fill-73" fill="#2A6E91"></path>
                            <polygon id="Fill-75" fill="#FFBE9D" points="65.8061128 185.820955 72.439692 184.30952 70.2434508 174.627688 63.6098716 176.139123"></polygon>
                            <path d="M60.6206139,96.2845728 C60.6206139,96.2845728 63.1993988,94.1098712 66.6854556,89.2846461 C71.7558527,82.2635152 70.9755312,76.0277874 70.9755312,76.0277874 L68.8994697,76.0277874 L41.4612664,76.5909707 C38.7402972,81.0591173 38.1487085,87.8351277 39.0678291,94.4347194 C40.9746234,108.132625 52.2969024,131.842301 52.2969024,131.842301 C52.1386376,133.715903 51.3473137,141.59029 53.130543,148.570709 C55.9437629,159.584164 63.6098716,178.221798 63.6098716,178.221798 C63.6098716,178.221798 68.4128267,178.908814 70.7978007,176.123431 C70.7978007,176.123431 66.5534272,138.284981 65.4100277,128.589578 C64.1726849,118.099442 60.6206139,96.2845728 60.6206139,96.2845728" id="Fill-77" fill="#2A6E91"></path>
                            <path d="M81.3128447,66.8124471 C82.7338423,64.1619236 83.085918,64.0465728 83.9297147,63.4647298 C84.7743577,62.8837351 89.9573175,62.1085099 92.1078565,61.9270021 C94.6384002,61.7132639 95.5363624,62.1789079 94.8330574,64.3595466 C93.3274262,69.0261644 88.7614452,78.9361539 87.7382253,80.3034 C87.0679274,81.1999131 86.9299747,82.0328136 84.0862868,82.3101644 C81.4279463,82.5705518 78.0959227,82.7155885 77.1150196,82.7749602 C76.1332702,82.8343319 74.7765941,83.0786042 75.6559369,80.1863529 C76.5352797,77.2932534 78.6104948,72.5961016 79.5406177,70.5740702 C80.6349298,68.1949602 81.3128447,66.8124471 81.3128447,66.8124471" id="Fill-97" fill="#215274"></path>
                            <path d="M71.6953397,181.027621 L71.4795241,180.076825 C72.1769047,180.209987 75.1543137,185.164982 78.109718,187.319328 C81.344413,189.677234 84.1534012,191.070773 85.5980962,192.134375 C87.5319733,193.555904 84.7331411,196.467663 79.9733492,196.727202 C77.6103799,196.855275 73.3093019,196.135181 71.9839402,194.874804 C70.6585785,193.614427 69.6988338,191.527087 68.6485312,190.621244 C67.5990749,189.715401 65.471387,188.921516 64.7511553,187.759527 C64.3559165,187.122553 64.2949804,185.54072 64.3398362,184.183652 C64.3804603,182.937694 64.4202381,181.5696 64.8459449,181.58826 C64.8797983,181.7316 65.010134,182.313443 65.010134,182.313443 C65.6135714,182.738375 67.5042853,183.276961 69.0454626,183.204867 C70.1651648,183.152281 72.2496896,182.891893 71.6953397,181.027621" id="Fill-79" fill="#333333"></path>
                            <path d="M64.5717322,122.168186 C64.5717322,122.168186 61.3742759,99.4016733 60.6210371,96.2846576 C60.6210371,96.2846576 66.2584792,94.1328565 67.990082,92.1600188 C67.990082,92.1600188 66.7527392,94.919956 62.720796,97.3728565 L64.5717322,122.168186 Z" id="Fill-81" fill="#215274"></path>
                            <path d="M47.6301227,121.288552 C47.6301227,121.288552 50.9274466,129.968698 52.2968177,131.842301 C52.2968177,131.842301 51.9548981,138.295159 52.0031392,139.599641 L50.2207563,141.156876 C50.2207563,141.156876 50.1352764,135.737934 51.0180045,132.452133 C51.0180045,132.452133 48.7904489,127.965327 47.6301227,121.288552" id="Fill-83" fill="#215274"></path>
                            <path d="M71.6788362,80.9584398 C58.5521695,87.9787225 42.272056,83.3273717 39.7804437,80.4342723 C42.037621,72.9890576 45.2943208,69.8440524 47.150335,67.8618848 L42.8974981,55.9705759 C42.8974981,55.9705759 42.3896967,54.7543037 42.4006991,54.7441257 C42.6588314,54.300534 49.0105809,48.5703141 45.8808314,39.5050995 C45.3950348,38.0988377 46.3886329,36.6136963 47.868874,36.4924084 L51.6376069,36.1836754 L61.8588031,35.8834241 C64.3030206,36.0199791 66.0439331,36.2566178 66.0439331,36.2566178 C67.6105005,37.7247958 69.464005,41.6521717 71.6788362,45.8646597 C72.9541254,48.2901902 78.464005,54.6521717 67.964005,67.6521717 C71.464005,73.1521717 71.6788362,80.9584398 71.6788362,80.9584398 Z" id="Fill-85" fill="#1FB571"></path>
                            <polygon id="Fill-87" fill="#22905C" opacity="0.500209263" points="45.6419955 60.2631518 47.1340853 54.4506597 48.9858678 67.8720628 45.237447 69.9627958 47.1510121 67.8618848 45.212057 62.4403979"></polygon>
                            <path d="M68.2433903,9.35740838 C69.9487567,10.3675759 71.8724778,12.3590733 71.6642792,21.3717016 C71.4882414,29.0102984 69.0177875,30.8974712 67.7770593,31.4419948 C66.5363312,31.9856702 64.1437402,31.6548848 61.8171634,31.2664241 L61.8171634,35.8507696 C61.8171634,35.8507696 65.2820617,42.2722461 64.4983548,44.838801 C62.8547709,45.1263298 60.6856125,43.9965707 57.6777355,41.9431571 C54.6690121,39.8897435 51.6374376,36.1832513 51.6374376,36.1832513 L51.6899104,25.6422251 C51.6899104,25.6422251 50.3205392,26.9746963 47.9998868,24.9407906 C46.0829364,23.262267 45.4380286,20.4302356 46.9309648,18.9111675 C48.4247473,17.3920995 51.184648,17.8060052 52.2425676,19.9722251 C52.2425676,19.9722251 62.3190404,16.1427487 68.2433903,9.35740838" id="Fill-89" fill="#FFBE9D"></path>
                            <path d="M61.8174173,31.266 C59.3664291,30.9436963 54.323961,29.4916335 53.5377151,27.4933508 C53.5377151,27.4933508 53.7992329,28.7494869 55.3057104,30.0437906 C56.8121879,31.3372461 61.8174173,32.7952461 61.8174173,32.7952461 L61.8174173,31.266 Z" id="Fill-91" fill="#EB996E"></path>
                            <path d="M31.6683161,75.0249141 C31.7275596,74.198799 33.2712759,65.3820974 34.3342735,60.4508513 L44.6773421,63.6272387 L43.0176778,70.5355634 L34.4121364,78.8738984 C31.6827038,78.3310712 31.6099189,75.8510293 31.6683161,75.0249141" id="Fill-93" fill="#FFBE9D"></path>
                            <path d="M47.8689586,36.4924932 C43.9004905,36.8410901 38.6692896,37.4322628 36.1810626,48.7519068 C33.8494078,59.3616346 33.2713605,63.0715194 33.2713605,63.0715194 C33.2713605,63.0715194 36.3283251,66.9518859 44.2297151,66.5244094 L47.1334929,54.4507445 C52.4213983,47.4779592 50.7202636,42.4780115 47.8689586,36.4924932" id="Fill-95" fill="#1FB571"></path>
                            <path d="M43.0174239,70.5351393 C43.0174239,70.5351393 70.464005,73.1521717 72.964005,71.6521717 C75.464005,70.1521717 76.8100806,68.8854073 78.964005,67.6521717 C81.1179293,66.4189361 81.7973719,65.5691183 81.7973719,66.0822597 C81.7973719,66.5962492 79.9582844,69.4121654 79.5401946,70.574155 C79.1229511,71.7369927 81.5214664,71.743778 84.6689889,71.0168984 C87.8173577,70.2891707 89.0800905,68.452888 89.9010362,69.5292126 C90.7211355,70.6055372 88.1567383,75.8489089 82.9255374,77.8013906 C77.6943364,79.7547204 76.280317,77.4706639 71.964005,77.6521717 C67.6476929,77.8336796 40.4149416,80.7657361 34.4118825,78.8734743 C34.4118825,78.8734743 33.7170409,76.0601026 36.4862513,73.7539351 C38.3329558,72.2170555 40.5100133,71.1441236 43.0174239,70.5351393 Z" id="Fill-99" fill="#FFBE9D"></path>
                            <path d="M70.331862,19.8936488 C70.3519732,20.4176732 69.9243444,20.8663824 69.3792235,20.897145 C68.8330441,20.9279076 68.3747191,20.5290549 68.3556663,20.0039697 C68.3355551,19.4799452 68.7631839,19.031236 69.3072464,19.0004735 C69.8534258,18.9697109 70.3117507,19.3696243 70.331862,19.8936488" id="Fill-101" fill="#333333"></path>
                            <path d="M70.7605619,18.4557016 C70.662387,18.5600262 70.0614887,18.1155864 69.2092286,18.1198272 C68.3578149,18.1121937 67.7323728,18.5523927 67.6401222,18.4480681 C67.5944201,18.402267 67.6942877,18.214822 67.9659615,18.0155026 C68.2342499,17.8170314 68.6904248,17.6236492 69.2219236,17.6253455 C69.7525761,17.6261937 70.1994414,17.8212723 70.4567274,18.0214398 C70.7199378,18.2224555 70.8088031,18.4090524 70.7605619,18.4557016" id="Fill-103" fill="#333333"></path>
                            <path d="M62.1412655,19.8936488 C62.1613768,20.4176732 61.7348065,20.8663824 61.188627,20.897145 C60.6435061,20.9279076 60.1851812,20.5290549 60.1650699,20.0039697 C60.1460171,19.4799452 60.5725875,19.031236 61.1177084,19.0004735 C61.6628293,18.9697109 62.1211543,19.3696243 62.1412655,19.8936488" id="Fill-105" fill="#333333"></path>
                            <path d="M62.3822617,18.6338168 C62.2840868,18.7381414 61.6823421,18.2937016 60.8309284,18.2979424 C59.9786683,18.2894607 59.3540726,18.7305079 59.2609757,18.6261832 C59.2161199,18.5803822 59.3142948,18.3929372 59.5876612,18.1936178 C59.8551033,17.9951466 60.3121246,17.8017644 60.8436234,17.8026126 C61.3742759,17.8043089 61.8211411,17.9993874 62.0784272,18.199555 C62.3399449,18.4005707 62.4305028,18.5871675 62.3822617,18.6338168" id="Fill-107" fill="#333333"></path>
                            <path d="M65.4894986,24.9619099 C65.4852669,24.9135644 66.015073,24.820266 66.8732574,24.7083079 C67.0907657,24.6854073 67.2972716,24.6421508 67.3336641,24.4928733 C67.3844442,24.3351141 67.2921936,24.1001717 67.1864017,23.8465696 C66.9807421,23.3190094 66.7649265,22.7668524 66.5389548,22.1875539 C65.6401463,19.823711 64.9884678,17.8805592 65.0841038,17.8457843 C65.1788934,17.8101613 65.9854513,19.6964859 66.8842598,22.0594806 C67.1009217,22.6421717 67.3074277,23.1977215 67.5046239,23.7286743 C67.5875648,23.9763393 67.7297492,24.2579309 67.6197255,24.5853236 C67.5613284,24.7481717 67.4022173,24.8669152 67.2625719,24.9050827 C67.1229265,24.9474911 67.0002078,24.9500356 66.8927232,24.9568209 C66.0286144,25.0051665 65.4928839,25.0111037 65.4894986,24.9619099" id="Fill-109" fill="#333333"></path>
                            <path d="M65.9618385,26.7385665 C65.5522121,26.437467 64.9741648,26.3772471 64.4799047,26.5842 C64.1362924,26.7283885 63.8290726,27.0065874 63.6995832,27.3602733 C63.5700939,27.7139592 63.6471104,28.1380429 63.9247085,28.3551738 C64.2378527,28.6002942 64.7194177,28.5349853 65.0765714,28.3076764 C65.4337251,28.0803675 65.6927038,27.7224408 65.9347558,27.3712995 C66.0016163,27.2737602 66.0701695,27.1728283 66.0964059,27.0591738 C66.1226423,26.9455194 66.0964059,26.8149016 66.0050017,26.7555298" id="Fill-111" fill="#EB996E"></path>
                            <path d="M63.485291,25.9462932 C63.6156267,25.8987958 63.8813761,26.7868272 64.8275794,27.1914031 C65.7737827,27.5976754 66.689518,27.216 66.7326811,27.3381361 C66.7623028,27.3898743 66.57357,27.5730785 66.1783312,27.7036963 C65.7907095,27.833466 65.1821941,27.8784188 64.6024541,27.6307539 C64.0244069,27.3822408 63.6723312,26.9259267 63.5335322,26.5705445 C63.3896551,26.2092251 63.4226622,25.9590157 63.485291,25.9462932" id="Fill-113" fill="#333333"></path>
                            <path d="M70.4414934,15.9840565 C70.291692,16.1782869 69.704335,15.9789675 68.998491,15.9704859 C68.292647,15.9374073 67.6942877,16.1036482 67.556335,15.9009361 C67.4962452,15.8025487 67.5893421,15.6083183 67.8500135,15.424266 C68.1072995,15.2402136 68.5372381,15.090088 69.0230348,15.1036586 C69.5079851,15.1180775 69.9294603,15.2928 70.1748976,15.490423 C70.4245667,15.6897424 70.5075076,15.8890618 70.4414934,15.9840565" id="Fill-115" fill="#333333"></path>
                            <path d="M61.9781364,15.9840565 C61.828335,16.1782869 61.240978,15.9789675 60.535134,15.9704859 C59.8292901,15.9374073 59.2309307,16.1036482 59.092978,15.9009361 C59.0328882,15.8025487 59.1259851,15.6083183 59.3866565,15.424266 C59.6439426,15.2402136 60.0738811,15.090088 60.5596778,15.1036586 C61.0446281,15.1180775 61.4661033,15.2928 61.7115407,15.490423 C61.9612097,15.6897424 62.0441506,15.8890618 61.9781364,15.9840565" id="Fill-117" fill="#333333"></path>
                        </g>
                        <g id="Grass_left" transform="translate(8.589108, 132.576720)">
                            <path d="M26.0533796,51.7429781 L31.4783914,48.6369886 C31.4783914,48.6369886 34.0800274,34.2673341 32.1343016,21.9154703 C29.3980983,4.54839174 17.5993323,-1.44136742 13.3143347,0.284653519 C9.02933707,2.01067446 8.02135126,7.15565876 15.7602449,17.1903289 C20.3270723,23.1105383 26.1997957,35.6260985 26.0533796,51.7429781" id="Fill-8" fill="#22905C"></path>
                            <path d="M28.0195867,44.8457645 C28.0018137,44.8457645 27.9840406,44.8440682 27.9662676,44.8423718 C27.7546836,44.8118378 27.6065749,44.6167593 27.6353503,44.4047174 C29.8781399,28.1461938 23.353738,10.3329792 16.0227782,3.15408912 C15.8704378,3.00481163 15.8678988,2.75884305 16.0168539,2.60617289 C16.1666553,2.45519907 16.4112463,2.45011006 16.5635867,2.60023572 C24.0282676,9.91059174 30.6770808,28.0130315 28.4021305,44.5107383 C28.3750477,44.7049687 28.2091659,44.8457645 28.0195867,44.8457645" id="Fill-10" fill="#FFFFFF"></path>
                            <path d="M11.0023995,60.4565425 C10.1450614,60.950176 8.37875882,59.8713069 7.70169026,59.4166891 C6.54305669,58.6372232 5.60531674,57.5346054 4.98156733,56.2869509 C4.2554113,54.8348881 4.07260279,53.2793488 4.30026709,51.6729195 C4.41790776,50.840019 4.65065007,50.0283226 4.88254605,49.2191708 L5.56553896,46.8375163 C5.78981792,46.0546577 6.01748222,45.2446577 5.91422927,44.4355059 C5.70603069,42.8070242 4.26302832,41.6662389 2.95205433,40.6823645 C1.50143494,39.5933174 -0.00842794082,38.1573697 1.67332814e-12,36.1964064 C0.00595976604,34.6832755 0.78797395,33.2787101 1.7231749,32.0912755 C2.65922218,30.903841 3.76961461,29.8546577 4.61510397,28.6010661 C5.22361934,27.6986158 5.69841367,26.6384064 5.59939239,25.5544483 C5.53760988,24.8801551 5.25916544,24.2457258 4.93671154,23.6503122 C4.24610161,22.37382 3.33459806,21.204197 2.85811107,19.8327101 C2.38162407,18.4612232 2.45017726,16.7555582 3.51825291,15.7742284 C4.39505669,14.9684692 5.69756733,14.8556629 6.88497631,14.9345425 C7.98267371,15.0074849 9.05498104,15.5036629 10.0155721,16.0388567 C13.1216241,17.7699666 14.8946974,21.4569509 18.1911749,22.7885739 C19.4623711,23.3025635 20.8554397,23.4153697 22.1808014,23.7665111 C23.5053167,24.1168043 24.8569148,24.7953383 25.4705082,26.0234849 C26.6807683,28.4458514 24.4354397,31.430553 25.286007,34.0013488 C26.0383995,36.2769823 28.2447966,37.1472022 29.4829858,39.1980713 C30.025487,40.0945844 30.1498983,41.1310451 30.0627257,42.1759876 C29.914617,43.9444169 29.6564846,45.2421132 28.8101489,47.2090137 C28.1102293,48.8341027 26.0536335,51.7433174 26.0536335,51.7433174 C26.002007,51.7942074 11.1335815,60.3810556 11.0023995,60.4565425" id="Fill-12" fill="#1FB571"></path>
                            <path d="M19.8083531,55.7547258 L19.7981971,55.7547258 C19.5789962,55.7453959 19.4131144,55.5647362 19.4215777,55.350998 C20.0605612,39.9618462 12.8260836,22.9730504 7.56441461,18.0367153 C7.40868884,17.8908305 7.40022549,17.6457101 7.54579523,17.4887991 C7.69305764,17.3327362 7.93680232,17.3251027 8.09337442,17.4701394 C13.4599891,22.5057101 20.8425754,39.7777938 20.1951286,55.3832284 C20.1858189,55.5918776 20.0148591,55.7547258 19.8083531,55.7547258" id="Fill-14" fill="#FFFFFF"></path>
                            <path d="M17.5073357,37.5734064 C17.4700969,37.5734064 17.4311654,37.5683174 17.3930803,37.556443 C12.4597896,36.0280451 6.31116071,35.7583279 6.24937821,35.7557834 C6.03610161,35.7473017 5.87021981,35.5657938 5.87868317,35.3520556 C5.88799286,35.1391656 6.04964298,34.9703802 6.28153896,34.9805582 C6.3441678,34.9839509 12.5901253,35.2570608 17.621591,36.8159928 C17.8255579,36.8787572 17.9406595,37.0958881 17.8771844,37.3002965 C17.8255579,37.4673855 17.6732174,37.5734064 17.5073357,37.5734064" id="Fill-16" fill="#FFFFFF"></path>
                        </g>
                        <g id="Grass_right" transform="translate(291.834521, 235.480975)">
                            <path d="M7.75564183,27.1438408 C10.6687293,20.7859769 21.2910886,9.72672038 31.6578546,4.50116017 C42.0237742,-0.725248211 55.1411312,-1.99919585 61.3396938,3.90574655 C67.1125496,9.40441671 62.245273,18.0667518 51.2022849,20.2100712 C40.1592967,22.3533905 24.2363369,24.1006157 15.8559208,32.7332649 L2.39156618,41.8603958 L7.75564183,27.1438408 Z" id="Fill-20" fill="#22905C"></path>
                            <path d="M3.30086926,35.6292481 C3.51076051,35.7064314 3.75365886,35.6377298 3.88907257,35.4477403 C18.0829685,15.6981591 43.6863161,6.11810676 55.95903,7.04515388 C56.2391671,7.06635807 56.4846045,6.85516435 56.5057629,6.5744209 C56.5277676,6.29452561 56.3238007,6.04601252 56.0352002,6.0256565 C43.5288976,5.0799497 17.4693752,14.8007979 3.06220259,34.8506303 C2.89716713,35.0796356 2.94963994,35.3985466 3.17730425,35.5630911 C3.21623569,35.5919288 3.25770614,35.6131329 3.30086926,35.6292481" id="Fill-22" fill="#FFFFFF"></path>
                            <path d="M0.165110865,51.0089005 C2.82260496,47.9037591 9.88019834,44.0098219 19.1585766,42.3804921 C29.4220896,40.5772879 40.4210683,42.6374869 44.6163544,39.4882408 C49.6579761,35.7062617 47.600534,28.994712 39.1380234,26.3060209 C30.6763591,23.6164816 11.5838721,28.0863246 1.78161205,43.5331518 L0.165110865,51.0089005 Z" id="Fill-24" fill="#2BB473"></path>
                            <path d="M0.334547272,46.5452492 C0.517355782,46.6122544 0.728939707,46.5706942 0.874509447,46.4214167 C16.0357671,30.8838356 33.1825284,30.8719612 40.1300981,33.0356366 C40.3983865,33.118757 40.684448,32.9686314 40.7682352,32.6989141 C40.8520224,32.4283486 40.7123771,32.146757 40.4330863,32.0585476 C32.7500508,29.665867 15.6202163,29.8473748 0.144968076,45.7072596 C-0.0513818062,45.9091235 -0.0479964634,46.2331235 0.153431433,46.4307466 C0.206750582,46.4833329 0.268533087,46.5215005 0.334547272,46.5452492" id="Fill-26" fill="#FFFFFF"></path>
                        </g>
                        <g id="Direction" transform="translate(138.336807, 202.916874)" fill="#2BB473">
                            <polygon id="Fill-28" points="1.15107923e-12 3.83117277 9.93174941 9.57750785 6.62088416 11.4935183 19.8634988 11.4935183 19.8634988 3.83117277 16.5526336 5.74718325 6.62088416 1.27897692e-13"></polygon>
                            <path d="M37.2127035,22.3492147 C37.0739045,22.3492147 36.9334128,22.3135916 36.8056161,22.239801 L32.0424388,19.4832565 C31.652278,19.257644 31.518557,18.7589215 31.7436823,18.3679162 C31.9688076,17.9760628 32.4681456,17.8429005 32.85746,18.0685131 L37.6206374,20.8250576 C38.0107981,21.0506702 38.1445191,21.5502408 37.9193939,21.9412461 C37.7678998,22.2033298 37.4945333,22.3492147 37.2127035,22.3492147 M48.7821125,29.0429529 C48.6433135,29.0429529 48.5036681,29.008178 48.3758714,28.9335393 L43.6118478,26.1778429 C43.221687,25.9522304 43.087966,25.4526597 43.3130913,25.0616545 C43.5382165,24.6723455 44.0367083,24.5374869 44.426869,24.7630995 L49.1908927,27.5187958 C49.5810534,27.7444084 49.7147745,28.2439791 49.4888028,28.6349843 C49.3381551,28.8962199 49.0639423,29.0429529 48.7821125,29.0429529 M60.3515215,35.7375393 C60.2127225,35.7375393 60.0730771,35.7019162 59.9452804,35.6281257 L55.1804104,32.8715812 C54.7902496,32.6459686 54.6573749,32.1463979 54.8816539,31.7553927 C55.1067792,31.3643874 55.6061173,31.2312251 55.9954317,31.4568377 L60.7603017,34.2133822 C61.1504624,34.4389948 61.2833371,34.9377173 61.0582118,35.3287225 C60.9075641,35.5908063 60.6333513,35.7375393 60.3515215,35.7375393 M71.9200842,42.4312775 C71.7821314,42.4312775 71.6416397,42.3956545 71.513843,42.3218639 L66.7506657,39.5661675 C66.360505,39.340555 66.2267839,38.8409843 66.4519092,38.4499791 C66.6770345,38.0589738 67.1763726,37.9249634 67.565687,38.1505759 L72.3288643,40.9062723 C72.7190251,41.132733 72.8527461,41.6314555 72.6267745,42.0224607 C72.476973,42.2836963 72.2019139,42.4312775 71.9200842,42.4312775 M83.4894931,49.1250157 C83.3515404,49.1250157 83.2110487,49.0902408 83.083252,49.0156021 L78.3200747,46.2590576 C77.9299139,46.033445 77.7961929,45.5338743 78.0213182,45.1437173 C78.2464435,44.7518639 78.7457816,44.6187016 79.135096,44.8443141 L83.8982733,47.6008586 C84.288434,47.8264712 84.4221551,48.3260419 84.1961835,48.7170471 C84.0446894,48.9791309 83.7713229,49.1250157 83.4894931,49.1250157 M95.0589021,55.8187539 C94.9201031,55.8187539 94.7804577,55.7839791 94.652661,55.7101885 L89.8886374,52.953644 C89.4993229,52.7280314 89.3656019,52.2293089 89.5898809,51.8383037 C89.8158525,51.4481466 90.3143442,51.3141361 90.7036586,51.5389005 L95.4676823,54.2945969 C95.8569967,54.5202094 95.9907177,55.0197801 95.7655924,55.4099372 C95.6140983,55.6720209 95.3407319,55.8187539 95.0589021,55.8187539 M106.628311,62.5133403 C106.490358,62.5133403 106.349867,62.4785654 106.22207,62.4039267 L101.458046,59.6473822 C101.067886,59.4217696 100.935011,58.922199 101.15929,58.5311937 C101.384415,58.1410366 101.883753,58.0078743 102.273068,58.2326387 L107.036245,60.9891832 C107.426406,61.2147958 107.560973,61.7143665 107.335848,62.1053717 C107.184354,62.3666073 106.910141,62.5133403 106.628311,62.5133403 M118.19772,69.2070785 C118.059767,69.2070785 117.919276,69.1723037 117.791479,69.0976649 L113.027455,66.3419686 C112.637295,66.116356 112.502727,65.6167853 112.728699,65.2257801 C112.953824,64.8347749 113.452316,64.7007644 113.84163,64.9272251 L118.605654,67.6829215 C118.995815,67.908534 119.130382,68.4081047 118.90441,68.7982618 C118.752916,69.0603455 118.47955,69.2070785 118.19772,69.2070785 M125.411039,71.6201152 L130.175063,74.3766597 C130.565224,74.6022723 130.698945,75.1018429 130.473819,75.4928482 C130.322325,75.7549319 130.048959,75.9016649 129.767129,75.9016649 C129.62833,75.9016649 129.488685,75.8660419 129.360042,75.7922513 L124.596018,73.0357068 C124.206704,72.8100942 124.072136,72.3105236 124.297261,71.9195183 C124.523233,71.5285131 125.021725,71.3936545 125.411039,71.6201152 Z M23.5808591,12.701733 L26.051313,14.1308953 C26.4414738,14.3565079 26.5751948,14.8560785 26.3500695,15.2470838 C26.1985754,15.5083194 25.925209,15.6550524 25.6433792,15.6550524 C25.5045801,15.6550524 25.3649348,15.6194293 25.2371381,15.5456387 L22.7666842,14.1164764 C22.3765234,13.8908639 22.2428024,13.3912932 22.4679277,13.000288 C22.693053,12.6101309 23.192391,12.4752723 23.5808591,12.701733 Z" id="Fill-32"></path>
                        </g>
                        <g id="Search_Home" transform="translate(198.353180, 50.788612)">
                            <path d="M92.8117116,150.291895 C73.374766,161.547079 57.0743404,155.64977 52.4618109,137.493047 C43.5456643,136.235215 37.0991253,129.390503 35.1186998,118.111571 C32.6160851,81.6759895 51.9320047,52.639822 79.5927943,40.8621675 C91.418643,36.5500838 101.328388,39.6289319 106.625603,48.5482618 C122.876941,45.7552461 134.499669,56.9120419 134.499669,77.9347225 C134.499669,104.561246 115.843891,136.978209 92.8117116,150.291895 M132.991499,19.4874974 C132.991499,19.4798639 132.983035,19.4798639 132.983035,19.4798639 C132.746908,19.3407644 132.46931,19.1694346 132.224719,19.0303351 L108.582331,5.42318325 C103.276652,1.86257592 97.0416974,2.84217094e-14 90.1135934,2.84217094e-14 C81.8423546,2.84217094e-14 73.4966383,3.00590576 63.6757589,8.45368586 C29.3399196,27.5170995 1.03739239e-12,82.4927749 1.03739239e-12,118.59333 L1.03739239e-12,128.582199 C1.03739239e-12,172.33577 57.41626,225.728764 57.41626,225.728764 L81.2228369,239.514031 C81.255844,239.555592 81.2880047,239.555592 81.3286288,239.555592 C80.5296879,238.615822 106.625603,200.465246 131.231121,126.050419 C158.467896,43.6806283 133.504378,19.961623 132.991499,19.4874974" id="Fill-36" fill="#2A6E91"></path>
                            <path d="M134.4995,77.9350618 C134.4995,104.561585 115.843722,136.978549 92.8115423,150.292235 C73.3745967,161.54657 57.0750175,155.649261 52.4616416,137.493386 C58.3055896,138.33392 65.2167669,136.766507 72.6323603,132.46969 C93.7247385,120.284067 110.807178,90.6109257 110.807178,66.2311979 C110.807178,58.9946325 109.299854,53.0320147 106.625434,48.548601 C122.877618,45.7547372 134.4995,56.911533 134.4995,77.9350618" id="Fill-38" fill="#AFE3E0"></path>
                            <polygon id="Fill-40" fill="#2BB473" points="60.3244388 134.946594 73.5611291 142.603002 73.5611291 116.922185 60.3244388 109.266625"></polygon>
                            <polygon id="Fill-42" fill="#22905C" points="60.3244388 134.946594 73.5611291 142.603002 73.5611291 116.922185 60.3244388 109.266625"></polygon>
                            <polygon id="Fill-44" fill="#1FB571" points="123.456596 88.0497141 92.7938539 73.6444366 62.1302652 123.532803 73.5608752 116.922185 73.5608752 142.603002 88.0450643 134.219714 88.0450643 117.421756 97.5307948 111.933264 97.5307948 128.730374 112.039528 120.328426 112.039528 94.6476094"></polygon>
                            <polygon id="Fill-46" fill="#2BB473" points="79.5579253 65.9882827 92.7937693 73.6446911 62.1301806 123.533058 48.895183 115.877497"></polygon>
                            <polygon id="Fill-48" fill="#22905C" points="79.5579253 65.9882827 92.7937693 73.6446911 62.1301806 123.533058 48.895183 115.877497"></polygon>
                            <polygon id="Fill-50" fill="#2BB473" points="79.5579253 65.9882827 92.7937693 73.6446911 123.456512 88.0499686 110.220668 80.3935602"></polygon>
                            <polygon id="Fill-52" fill="#22905C" points="79.5579253 65.9882827 92.7937693 73.6446911 123.456512 88.0499686 110.220668 80.3935602"></polygon>
                            <polygon id="Fill-54" fill="#2BB473" points="88.0452336 134.219799 97.5309641 128.730459 97.5309641 111.933349 88.0452336 117.421841"></polygon>
                            <polygon id="Fill-56" fill="#22905C" points="88.0452336 134.219799 97.5309641 128.730459 97.5309641 111.933349 88.0452336 117.421841"></polygon>
                            <path d="M52.4619801,137.493217 C52.2173891,136.561929 52.0049589,135.59841 51.8339991,134.601814 C51.3456634,131.996243 51.1171527,129.17863 51.1171527,126.172725 C51.1171527,99.5470492 69.7720842,67.1377194 92.8118809,53.8248817 C95.4033608,52.338044 97.9550629,51.1294052 100.416207,50.2303476 C102.551512,49.4551225 104.621649,48.8910911 106.625772,48.5484314 C122.87711,45.7545675 134.499838,56.9122115 134.499838,77.9348921 C134.499838,104.561416 115.844061,136.978379 92.8118809,150.292065 C73.3749352,161.5464 57.0745097,155.649939 52.4619801,137.493217 M132.990822,19.487667 C132.990822,19.4800335 132.983205,19.4800335 132.983205,19.4800335 C132.746231,19.340934 132.469479,19.1696042 132.224888,19.0305047 C120.750269,12.5700126 105.41128,13.4359916 88.5658147,23.1712586 C63.1630487,37.8895099 41.1735546,68.7958869 30.7661645,101.228965 C26.6343537,114.077007 24.8900558,120.880159 24.8900558,133.311751 L24.8900558,143.292138 C24.8900558,177.007646 62.4047319,222.354075 79.9433466,238.550683 C80.3588974,238.934903 80.7744482,239.245332 81.2221598,239.514201 C81.2551669,239.555761 81.288174,239.555761 81.3279518,239.555761 C85.5664009,242.177447 91.3206374,240.690609 93.5947414,235.994306 C108.721299,204.949677 152.804387,111.455321 152.804387,75.2233005 L152.804387,65.2429131 C152.804387,42.7656251 145.216141,26.8463686 132.990822,19.487667" id="Fill-58" fill="#215274"></path>
                        </g>
                    </g>
                </g>
            </g>
        </g>
    </g>
</svg>