<?xml version="1.0" encoding="UTF-8"?>
<svg width="182px" height="182px" viewBox="0 0 182 182" version="1.1" xmlns="http://www.w3.org/2000/svg" xmlns:xlink="http://www.w3.org/1999/xlink">
    <title>5B04CE98-87CD-48F9-8D71-66842D1F6BE8</title>
    <g id="Communities" stroke="none" stroke-width="1" fill="none" fill-rule="evenodd">
        <g id="Communities_Placeholder" transform="translate(-869.000000, -421.000000)">
            <g id="Create-my-first-community" transform="translate(744.000000, 421.000000)">
                <g id="placeholder/req_off_com" transform="translate(125.000000, 0.000000)">
                    <circle id="Oval" stroke="#E8EEF4" stroke-width="2" fill="#FFFFFF" cx="91" cy="91" r="90"></circle>
                    <path d="M129.258677,44 C133.501056,44 137,47.4989499 137,51.7415719 L137,51.7415719 L137,127.268535 C137,131.511157 133.501056,135 129.258677,135 L129.258677,135 L53.7413191,135 C49.4989428,135 46,131.511157 46,127.268535 L46,127.268535 L46,51.7415719 C46,47.4989499 49.4989428,44 53.7413191,44 L53.7413191,44 Z M129.258677,49.0656665 L53.7413191,49.0656665 C52.2124494,49.0656665 51.0555553,50.2122664 51.0555553,51.7415719 L51.0555553,51.7415719 L51.0555553,127.268535 C51.0555553,128.797841 52.2124494,129.944441 53.7413191,129.944441 L53.7413191,129.944441 L129.258677,129.944441 C130.787548,129.944441 131.944441,128.797841 131.944441,127.268535 L131.944441,127.268535 L131.944441,51.7415719 C131.944441,50.2122664 130.787548,49.0656665 129.258677,49.0656665 L129.258677,49.0656665 Z M121,115 L121,120 L61,120 L61,115 L121,115 Z M119.5,85 C120.880653,85 122,86.1193453 122,87.5 L122,87.5 L122,102.5 C122,103.880654 120.880653,105 119.5,105 L119.5,105 L89.5,105 C88.1193453,105 87,103.880654 87,102.5 L87,102.5 L87,87.5 C87,86.1193453 88.1193453,85 89.5,85 L89.5,85 Z M117,89.9999998 L91.9999998,89.9999998 L91.9999998,99.9999998 L117,99.9999998 L117,89.9999998 Z M76,90 L76,95 L61,95 L61,90 L76,90 Z M119.5,59 C120.880653,59 122,60.1193453 122,61.5 L122,61.5 L122,76.5 C122,77.8806539 120.880653,79 119.5,79 L119.5,79 L89.5,79 C88.1193453,79 87,77.8806539 87,76.5 L87,76.5 L87,61.5 C87,60.1193453 88.1193453,59 89.5,59 L89.5,59 Z M117,63.9999998 L91.9999998,63.9999998 L91.9999998,73.9999998 L117,73.9999998 L117,63.9999998 Z M76,64 L76,69 L61,69 L61,64 L76,64 Z" id="placeholder-icon" fill="#2A6E91" fill-rule="nonzero"></path>
                </g>
            </g>
        </g>
    </g>
</svg>